<svg width="512" height="512" viewBox="0 0 512 512" fill="none" xmlns="http://www.w3.org/2000/svg">
<path d="M372.245 33.2919C379.39 33.2919 385.993 37.1039 389.565 43.2919L506.31 245.5C509.883 251.688 509.883 259.312 506.31 265.5L389.565 467.708C385.993 473.896 379.39 477.708 372.245 477.708L138.755 477.708C131.61 477.708 125.007 473.896 121.435 467.708L4.68971 265.5C1.11705 259.312 1.11706 251.688 4.68971 245.5L121.435 43.2919C125.007 37.1039 131.61 33.2919 138.755 33.2919L372.245 33.2919Z" fill="#FFC961"/>
<path d="M165.904 190.984C154.424 190.984 143.368 192.793 133.003 196.142C125.007 198.726 116.92 192.074 121.63 185.114C131.24 170.916 147.495 161.584 165.93 161.584C184.378 161.584 200.643 170.929 210.25 185.143C214.956 192.106 206.865 198.752 198.87 196.163C188.486 192.801 177.407 190.984 165.904 190.984Z" fill="black"/>
<path d="M347.65 190.984C336.171 190.984 325.115 192.793 314.75 196.142C306.753 198.726 298.667 192.074 303.377 185.114C312.987 170.916 329.242 161.584 347.677 161.584C366.125 161.584 382.39 170.929 391.997 185.143C396.703 192.106 388.612 198.752 380.617 196.163C370.233 192.801 359.154 190.984 347.65 190.984Z" fill="black"/>
<path d="M148.068 334.866C178.446 356.169 215.445 368.671 255.364 368.671C295.283 368.671 332.282 356.169 362.66 334.866C371.884 328.397 383.979 336.838 376.6 345.353C347.196 379.282 303.786 400.744 255.364 400.744C206.942 400.744 163.532 379.282 134.128 345.353C126.749 336.838 138.844 328.397 148.068 334.866Z" fill="black"/>
</svg>
